<svg width="800" height="800" viewBox="0 0 800 800" fill="none" xmlns="http://www.w3.org/2000/svg" role="img" aria-labelledby="title desc">
<title id="title">Minimal citrus logo mark</title>
<desc id="desc">A clean vector citrus slice logo in warm orange gradient with eight rounded segments and transparent background.</desc>
<defs>
<linearGradient id="g0" x1="223" y1="223" x2="577" y2="577" gradientUnits="userSpaceOnUse"><stop offset="0" stop-color="#df5a12"/><stop offset="0.62" stop-color="#ff9417"/><stop offset="1" stop-color="#e84b1b"/></linearGradient>
<linearGradient id="g1" x1="400" y1="150" x2="400" y2="650" gradientUnits="userSpaceOnUse"><stop offset="0" stop-color="#e96011"/><stop offset="0.62" stop-color="#ffa01a"/><stop offset="1" stop-color="#e84b1b"/></linearGradient>
<linearGradient id="g2" x1="577" y1="223" x2="223" y2="577" gradientUnits="userSpaceOnUse"><stop offset="0" stop-color="#f27616"/><stop offset="0.62" stop-color="#ffb02b"/><stop offset="1" stop-color="#e84b1b"/></linearGradient>
<linearGradient id="g3" x1="650" y1="400" x2="150" y2="400" gradientUnits="userSpaceOnUse"><stop offset="0" stop-color="#f68713"/><stop offset="0.62" stop-color="#f26318"/><stop offset="1" stop-color="#e84b1b"/></linearGradient>
<linearGradient id="g4" x1="577" y1="577" x2="223" y2="223" gradientUnits="userSpaceOnUse"><stop offset="0" stop-color="#ec5019"/><stop offset="0.62" stop-color="#ff8619"/><stop offset="1" stop-color="#e84b1b"/></linearGradient>
<linearGradient id="g5" x1="400" y1="650" x2="400" y2="150" gradientUnits="userSpaceOnUse"><stop offset="0" stop-color="#f07814"/><stop offset="0.62" stop-color="#ff9b1a"/><stop offset="1" stop-color="#e84b1b"/></linearGradient>
<linearGradient id="g6" x1="223" y1="577" x2="577" y2="223" gradientUnits="userSpaceOnUse"><stop offset="0" stop-color="#f58b15"/><stop offset="0.62" stop-color="#ffb029"/><stop offset="1" stop-color="#e84b1b"/></linearGradient>
<linearGradient id="g7" x1="150" y1="400" x2="650" y2="400" gradientUnits="userSpaceOnUse"><stop offset="0" stop-color="#e85a16"/><stop offset="0.62" stop-color="#fb7d18"/><stop offset="1" stop-color="#e84b1b"/></linearGradient>
</defs>
<path d="M 386.95 343.49 L 342.94 201.02 Q 332.47 164.49 361.67 158.02 A 245.00 245.00 0 0 1 438.33 158.02 Q 467.53 164.49 457.06 201.02 L 413.05 343.49 Q 400.00 400.00 386.95 343.49 Z" fill="url(#g0)"/>
<path d="M 430.74 350.81 L 500.36 218.95 Q 518.78 185.72 544.01 201.79 A 245.00 245.00 0 0 1 598.21 255.99 Q 614.28 281.22 581.05 299.64 L 449.19 369.26 Q 400.00 400.00 430.74 350.81 Z" fill="url(#g1)"/>
<path d="M 456.51 386.95 L 598.98 342.94 Q 635.51 332.47 641.98 361.67 A 245.00 245.00 0 0 1 641.98 438.33 Q 635.51 467.53 598.98 457.06 L 456.51 413.05 Q 400.00 400.00 456.51 386.95 Z" fill="url(#g2)"/>
<path d="M 449.19 430.74 L 581.05 500.36 Q 614.28 518.78 598.21 544.01 A 245.00 245.00 0 0 1 544.01 598.21 Q 518.78 614.28 500.36 581.05 L 430.74 449.19 Q 400.00 400.00 449.19 430.74 Z" fill="url(#g3)"/>
<path d="M 413.05 456.51 L 457.06 598.98 Q 467.53 635.51 438.33 641.98 A 245.00 245.00 0 0 1 361.67 641.98 Q 332.47 635.51 342.94 598.98 L 386.95 456.51 Q 400.00 400.00 413.05 456.51 Z" fill="url(#g4)"/>
<path d="M 369.26 449.19 L 299.64 581.05 Q 281.22 614.28 255.99 598.21 A 245.00 245.00 0 0 1 201.79 544.01 Q 185.72 518.78 218.95 500.36 L 350.81 430.74 Q 400.00 400.00 369.26 449.19 Z" fill="url(#g5)"/>
<path d="M 343.49 413.05 L 201.02 457.06 Q 164.49 467.53 158.02 438.33 A 245.00 245.00 0 0 1 158.02 361.67 Q 164.49 332.47 201.02 342.94 L 343.49 386.95 Q 400.00 400.00 343.49 413.05 Z" fill="url(#g6)"/>
<path d="M 350.81 369.26 L 218.95 299.64 Q 185.72 281.22 201.79 255.99 A 245.00 245.00 0 0 1 255.99 201.79 Q 281.22 185.72 299.64 218.95 L 369.26 350.81 Q 400.00 400.00 350.81 369.26 Z" fill="url(#g7)"/>
</svg>
